<?xml version="1.0" encoding="UTF-8"?><svg id="_레이어_2" xmlns="http://www.w3.org/2000/svg" viewBox="0 0 42 111.6"><g id="_레이어_2-2"><path d="M30.8,48.7h5.6c3,0,5.5-2.5,5.5-5.5v-22.2C42,9.4,32.5,0,21,0S0,9.4,0,21v22.2c0,11.3,10.1,16.5,17.5,20.2,2.3,1.2,7.6,3.9,7.8,5.1v22.1c0,2.4-1.9,4.4-4.4,4.4s-4.4-2-4.4-4.4v-22.1c0-3-2.5-5.5-5.5-5.5h-5.6c-3,0-5.5,2.5-5.5,5.5v22.1c0,11.6,9.4,21,21,21s21-9.4,21-21v-22.1c0-11.3-10.1-16.4-17.4-20.2-2.5-1.3-7.8-3.9-7.9-5.2v-22.2c0-2.3,2.1-4.4,4.4-4.4s4.4,2,4.4,4.4v22.2c0,3,2.5,5.5,5.5,5.5Z" fill="#e8261c"/></g></svg>