<?xml version="1.0" encoding="UTF-8"?><svg id="_레이어_2" xmlns="http://www.w3.org/2000/svg" viewBox="0 0 104.9 111.6"><g id="_레이어_2-2"><path d="M99.4,47.6h-47.6c-3,0-5.5,2.5-5.5,5.5v5.6c0,3,2.5,5.5,5.5,5.5h36.4v13.8c-7.3,10.6-19.4,17-32.4,17-21.6,0-39.3-17.5-39.3-39.1S34.2,16.6,55.9,16.6s26.2,7.1,33.6,18.9c1,1.6,2.8,2.6,4.7,2.6s1.9-.3,2.8-.8l4.8-2.8c1.3-.7,2.2-2,2.5-3.4.4-1.4.1-3-.6-4.2C93.3,10.1,75.5,0,55.9,0,25.1,0,0,25.1,0,55.9s25.1,55.7,55.9,55.7,37.3-9.9,47.6-26.6l.3-.4c.7-.9,1.1-2.1,1.1-3.3v-28.3c0-3-2.5-5.5-5.5-5.5Z" fill="#e8261c"/></g></svg>